HIERARCHY
ROOT mixamorig:Hips
{
  OFFSET 0 96.8 0
  CHANNELS 6 Xposition Yposition Zposition Zrotation Xrotation Yrotation
  JOINT mixamorig:Spine
  {
    OFFSET 0 12.3689 -3.99218
    CHANNELS 6 Xposition Yposition Zposition Zrotation Xrotation Yrotation
    JOINT mixamorig:Spine1
    {
      OFFSET 0 14.0303 0
      CHANNELS 6 Xposition Yposition Zposition Zrotation Xrotation Yrotation
      JOINT mixamorig:Spine2
      {
        OFFSET 0 5.60109 0
        CHANNELS 6 Xposition Yposition Zposition Zrotation Xrotation Yrotation
        JOINT mixamorig:Neck
        {
          OFFSET 0 23.8357 -5.66956
          CHANNELS 6 Xposition Yposition Zposition Zrotation Xrotation Yrotation
          JOINT mixamorig:Head
          {
            OFFSET 0 9.08726 0
            CHANNELS 6 Xposition Yposition Zposition Zrotation Xrotation Yrotation
            End Site
            {
              OFFSET 0 19.5091 9.42096
            }
          }
        }
        JOINT mixamorig:RightShoulder
        {
          OFFSET -6.92539 12.7236 -3.42068
          CHANNELS 6 Xposition Yposition Zposition Zrotation Xrotation Yrotation
          JOINT mixamorig:RightArm
          {
            OFFSET 0 11.9164 0
            CHANNELS 6 Xposition Yposition Zposition Zrotation Xrotation Yrotation
            JOINT mixamorig:RightForeArm
            {
              OFFSET -1.03322e-05 25.7 1.48965e-05
              CHANNELS 6 Xposition Yposition Zposition Zrotation Xrotation Yrotation
              JOINT mixamorig:RightHand
              {
                OFFSET -1.0694e-05 26.6 1.54182e-05
                CHANNELS 6 Xposition Yposition Zposition Zrotation Xrotation Yrotation
                JOINT mixamorig:RightHandThumb1
                {
                  OFFSET 2.51819 2.31438 1.47793
                  CHANNELS 6 Xposition Yposition Zposition Zrotation Xrotation Yrotation
                  JOINT mixamorig:RightHandThumb2
                  {
                    OFFSET 0 3.93334 0
                    CHANNELS 6 Xposition Yposition Zposition Zrotation Xrotation Yrotation
                    JOINT mixamorig:RightHandThumb3
                    {
                      OFFSET 0 3.20778 0
                      CHANNELS 6 Xposition Yposition Zposition Zrotation Xrotation Yrotation
                      End Site
                      {
                        OFFSET 0 2.41783 0
                      }
                    }
                  }
                }
                JOINT mixamorig:RightHandIndex1
                {
                  OFFSET 0 8.70165 0
                  CHANNELS 6 Xposition Yposition Zposition Zrotation Xrotation Yrotation
                  JOINT mixamorig:RightHandIndex2
                  {
                    OFFSET 0 3.42558 0
                    CHANNELS 6 Xposition Yposition Zposition Zrotation Xrotation Yrotation
                    JOINT mixamorig:RightHandIndex3
                    {
                      OFFSET 0 2.63863 0
                      CHANNELS 6 Xposition Yposition Zposition Zrotation Xrotation Yrotation
                      End Site
                      {
                        OFFSET 0 2.56659 0
                      }
                    }
                  }
                }
                JOINT mixamorig:RightHandMiddle1
                {
                  OFFSET -2.22417e-05 8.95076 3.74234e-05
                  CHANNELS 6 Xposition Yposition Zposition Zrotation Xrotation Yrotation
                  JOINT mixamorig:RightHandMiddle2
                  {
                    OFFSET 0 3.4742 0
                    CHANNELS 6 Xposition Yposition Zposition Zrotation Xrotation Yrotation
                    JOINT mixamorig:RightHandMiddle3
                    {
                      OFFSET 0 2.76997 0
                      CHANNELS 6 Xposition Yposition Zposition Zrotation Xrotation Yrotation
                      End Site
                      {
                        OFFSET 0 2.7668 0
                      }
                    }
                  }
                }
                JOINT mixamorig:RightHandRing1
                {
                  OFFSET -1.75131 8.54802 0.0404412
                  CHANNELS 6 Xposition Yposition Zposition Zrotation Xrotation Yrotation
                  JOINT mixamorig:RightHandRing2
                  {
                    OFFSET 0 3.17304 0
                    CHANNELS 6 Xposition Yposition Zposition Zrotation Xrotation Yrotation
                    JOINT mixamorig:RightHandRing3
                    {
                      OFFSET 0 2.71333 0
                      CHANNELS 6 Xposition Yposition Zposition Zrotation Xrotation Yrotation
                      End Site
                      {
                        OFFSET 0 2.47778 0
                      }
                    }
                  }
                }
                JOINT mixamorig:RightHandPinky1
                {
                  OFFSET -3.57399 7.58378 0.457001
                  CHANNELS 6 Xposition Yposition Zposition Zrotation Xrotation Yrotation
                  JOINT mixamorig:RightHandPinky2
                  {
                    OFFSET 0 3.3803 0
                    CHANNELS 6 Xposition Yposition Zposition Zrotation Xrotation Yrotation
                    JOINT mixamorig:RightHandPinky3
                    {
                      OFFSET 0 1.97184 0
                      CHANNELS 6 Xposition Yposition Zposition Zrotation Xrotation Yrotation
                      End Site
                      {
                        OFFSET 0 1.98666 0
                      }
                    }
                  }
                }
              }
            }
          }
        }
        JOINT mixamorig:LeftShoulder
        {
          OFFSET 6.92539 12.7236 -3.42068
          CHANNELS 6 Xposition Yposition Zposition Zrotation Xrotation Yrotation
          JOINT mixamorig:LeftArm
          {
            OFFSET 0 11.9164 0
            CHANNELS 6 Xposition Yposition Zposition Zrotation Xrotation Yrotation
            JOINT mixamorig:LeftForeArm
            {
              OFFSET 0 25.7 0
              CHANNELS 6 Xposition Yposition Zposition Zrotation Xrotation Yrotation
              JOINT mixamorig:LeftHand
              {
                OFFSET 0 26.6 0
                CHANNELS 6 Xposition Yposition Zposition Zrotation Xrotation Yrotation
                JOINT mixamorig:LeftHandThumb1
                {
                  OFFSET -2.51807 2.31564 1.48
                  CHANNELS 6 Xposition Yposition Zposition Zrotation Xrotation Yrotation
                  JOINT mixamorig:LeftHandThumb2
                  {
                    OFFSET 0 3.93157 0
                    CHANNELS 6 Xposition Yposition Zposition Zrotation Xrotation Yrotation
                    JOINT mixamorig:LeftHandThumb3
                    {
                      OFFSET 0 3.20977 0
                      CHANNELS 6 Xposition Yposition Zposition Zrotation Xrotation Yrotation
                      End Site
                      {
                        OFFSET 0 2.4231 0
                      }
                    }
                  }
                }
                JOINT mixamorig:LeftHandIndex1
                {
                  OFFSET 0 8.70165 0
                  CHANNELS 6 Xposition Yposition Zposition Zrotation Xrotation Yrotation
                  JOINT mixamorig:LeftHandIndex2
                  {
                    OFFSET 0 3.42522 0
                    CHANNELS 6 Xposition Yposition Zposition Zrotation Xrotation Yrotation
                    JOINT mixamorig:LeftHandIndex3
                    {
                      OFFSET 0 2.63834 0
                      CHANNELS 6 Xposition Yposition Zposition Zrotation Xrotation Yrotation
                      End Site
                      {
                        OFFSET 0 2.56879 0
                      }
                    }
                  }
                }
                JOINT mixamorig:LeftHandMiddle1
                {
                  OFFSET -3.43705e-05 8.9516 -3.05546e-05
                  CHANNELS 6 Xposition Yposition Zposition Zrotation Xrotation Yrotation
                  JOINT mixamorig:LeftHandMiddle2
                  {
                    OFFSET 0 3.4742 0
                    CHANNELS 6 Xposition Yposition Zposition Zrotation Xrotation Yrotation
                    JOINT mixamorig:LeftHandMiddle3
                    {
                      OFFSET 0 2.76997 0
                      CHANNELS 6 Xposition Yposition Zposition Zrotation Xrotation Yrotation
                      End Site
                      {
                        OFFSET 0 2.77266 0
                      }
                    }
                  }
                }
                JOINT mixamorig:LeftHandRing1
                {
                  OFFSET 1.75126 8.5489 0.0404023
                  CHANNELS 6 Xposition Yposition Zposition Zrotation Xrotation Yrotation
                  JOINT mixamorig:LeftHandRing2
                  {
                    OFFSET 0 2.95776 0
                    CHANNELS 6 Xposition Yposition Zposition Zrotation Xrotation Yrotation
                    JOINT mixamorig:LeftHandRing3
                    {
                      OFFSET 0 2.76997 0
                      CHANNELS 6 Xposition Yposition Zposition Zrotation Xrotation Yrotation
                      End Site
                      {
                        OFFSET -2.1854e-05 2.48294 0
                      }
                    }
                  }
                }
                JOINT mixamorig:LeftHandPinky1
                {
                  OFFSET 3.57398 7.58481 0.457164
                  CHANNELS 6 Xposition Yposition Zposition Zrotation Xrotation Yrotation
                  JOINT mixamorig:LeftHandPinky2
                  {
                    OFFSET 0 3.3803 0
                    CHANNELS 6 Xposition Yposition Zposition Zrotation Xrotation Yrotation
                    JOINT mixamorig:LeftHandPinky3
                    {
                      OFFSET 0 1.97184 0
                      CHANNELS 6 Xposition Yposition Zposition Zrotation Xrotation Yrotation
                      End Site
                      {
                        OFFSET 0 1.99582 0
                      }
                    }
                  }
                }
              }
            }
          }
        }
      }
    }
  }
  JOINT mixamorig:RightUpLeg
  {
    OFFSET -8.5 -8.19964 0.08092
    CHANNELS 6 Xposition Yposition Zposition Zrotation Xrotation Yrotation
    JOINT mixamorig:RightLeg
    {
      OFFSET 0 42.9009 0
      CHANNELS 6 Xposition Yposition Zposition Zrotation Xrotation Yrotation
      JOINT mixamorig:RightFoot
      {
        OFFSET 0 38.0864 0
        CHANNELS 6 Xposition Yposition Zposition Zrotation Xrotation Yrotation
        JOINT mixamorig:RightToeBase
        {
          OFFSET 0 14.087 0
          CHANNELS 6 Xposition Yposition Zposition Zrotation Xrotation Yrotation
          End Site
          {
            OFFSET 0 9.45955 0
          }
        }
      }
    }
  }
  JOINT mixamorig:LeftUpLeg
  {
    OFFSET 8.5 -8.19964 0.08092
    CHANNELS 6 Xposition Yposition Zposition Zrotation Xrotation Yrotation
    JOINT mixamorig:LeftLeg
    {
      OFFSET 0 42.9009 0
      CHANNELS 6 Xposition Yposition Zposition Zrotation Xrotation Yrotation
      JOINT mixamorig:LeftFoot
      {
        OFFSET 0 38.0864 0
        CHANNELS 6 Xposition Yposition Zposition Zrotation Xrotation Yrotation
        JOINT mixamorig:LeftToeBase
        {
          OFFSET 0 14.087 0
          CHANNELS 6 Xposition Yposition Zposition Zrotation Xrotation Yrotation
          End Site
          {
            OFFSET 0 9.45957 0
          }
        }
      }
    }
  }
}
MOTION
Frames:	4
Frame Time:	0.0333333
-3.7382 93.7782 -67.9264 3.93751 -2.11762 13.9888 0 12.3689 -3.99218 1.37287 12.7982 -3.1274 0 14.0303 0 1.10054 -5.11497 -3.37828 0 5.60109 0 0.830134 3.60246 -2.52059 -1.82323e-06 23.8357 -5.66956 3.86186e-06 29.2987 -9.90584e-06 0 9.08727 0 -7.95139e-15 9.54166e-15 -5.56597e-15 -6.92539 12.7236 -3.42068 68.0656 11.5674 -80.5014 -1.42109e-14 11.9164 0 -96.0482 40.2952 50.998 -1.03322e-05 25.7 1.48965e-05 -27.6378 -2.67105 -13.1453 -1.0694e-05 26.6 1.54182e-05 -37.9685 -8.33648 -19.4694 2.51819 2.31438 1.47793 -30.9004 26.556 14.9798 -1.42109e-14 3.93334 -1.42109e-14 1.06543 -0.266601 -0.131651 -2.84217e-14 3.20778 1.42109e-14 0.7928 -0.191401 -0.091243 -3.49832e-06 8.70165 5.04374e-06 -0.0188237 -6.94349e-05 3.18055e-15 0 3.42558 -2.84217e-14 0.0292947 -7.95139e-16 -0 -3.19744e-13 2.63863 -8.23349e-10 -0.0100751 -7.95139e-16 4.77083e-15 -2.22417e-05 8.95076 3.74234e-05 -0.0575027 -0.000112091 -1.59028e-15 -1.42109e-14 3.4742 -2.84217e-14 0.0973881 -7.95139e-16 -0 -2.41585e-13 2.76997 -1.44708e-08 -0.0368804 -3.97569e-15 -0 -1.75131 8.54802 0.0404412 0.0178567 7.9792e-06 1.59028e-15 0 3.17304 -2.84217e-14 -0.0253838 -7.95139e-16 3.18055e-15 2.4869e-13 2.71333 7.70171e-10 -0.0129265 1.59028e-15 -0 -3.57399 7.58378 0.457001 0.0596292 0.000535225 -1.59028e-15 0 3.3803 -2.84217e-14 0.096971 0 4.77083e-15 -4.9738e-14 1.97184 -1.98723e-08 -0.0569265 1.59028e-15 -0 6.92539 12.7236 -3.42068 -73.3487 -3.51424 88.2004 0 11.9164 0 99.9295 61.3872 -42.9442 -7.10543e-15 25.7 7.10543e-15 2.47419 0.778144 -14.9956 -2.00373e-11 26.6 3.55271e-15 -21.6641 27.9049 20.484 -2.51807 2.31564 1.48 30.7775 26.5578 -14.9111 -1.42109e-14 3.93157 0 -0.940956 -0.237838 0.117539 0 3.20977 7.10543e-14 -0.695804 -0.175996 0.084333 -6.5512e-12 8.70165 0 -0.0050508 7.6384e-05 -0 0 3.42522 -1.42109e-14 0.0120434 3.90438e-05 -1.27222e-14 -6.53699e-13 2.63834 2.84217e-14 -0.00759159 3.83596e-05 -0 -3.43705e-05 8.9516 -3.05546e-05 -0.00362641 4.68076e-05 -3.18055e-15 0 3.4742 -7.10543e-15 0.0024289 -1.87453e-05 -6.36111e-15 -2.70006e-12 2.76997 -7.10543e-15 0.00237084 -4.89982e-05 -3.18055e-15 1.75126 8.5489 0.0404023 0.000723448 7.16082e-05 -6.36111e-15 0 2.95776 -1.42109e-14 1.59028e-15 1.59028e-15 -3.18055e-15 2.48198e-06 2.76997 4.89192e-07 -1.59028e-15 -1.59028e-15 -3.18055e-15 3.57398 7.58481 0.457164 0.234317 -0.000570151 2.33218e-06 -1.42109e-14 3.3803 2.84217e-14 -0.0241399 7.20261e-05 -3.18055e-15 2.27374e-13 1.97184 2.13163e-14 -0.00768704 1.21015e-05 -0 -8.5 -8.19964 0.08092 175.327 14.7172 10.3717 7.99361e-15 42.9009 -7.10543e-15 2.39457 -43.3756 -4.62539 -1.24345e-14 38.0864 0 17.5449 75.6568 -17.1563 0 14.087 0 -1.55001e-05 39.1744 5.51545e-06 8.5 -8.19964 0.08092 -177.112 20.5784 -4.54956 7.10543e-15 42.9009 0 -0.504415 -15.9097 -3.58814 0 38.0864 0 -11.7839 67.8202 10.5276 -3.55271e-15 14.087 -4.44089e-15 -1.59485e-05 39.1744 5.46156e-06 
-4.71225 93.8228 -68.0246 4.08235 -1.91005 14.5766 0 12.3689 -3.99218 1.36128 12.665 -3.08728 0 14.0303 1.42109e-14 1.09336 -5.27061 -3.33468 1.77636e-15 5.60109 -1.42109e-14 0.82513 3.4912 -2.48895 -1.82323e-06 23.8357 -5.66956 3.86186e-06 29.2987 -9.90584e-06 0 9.08727 0 -6.36111e-15 3.18055e-15 -7.15625e-15 -6.92539 12.7236 -3.42068 68.538 10.3929 -81.134 0 11.9164 0 -96.3974 41.8256 51.5301 -1.03322e-05 25.7 1.48965e-05 -28.357 -3.25004 -12.4266 -1.0694e-05 26.6 1.54182e-05 -37.0452 -8.76581 -18.5288 2.51819 2.31438 1.47793 -30.9004 26.556 14.9798 -1.42109e-14 3.93334 0 1.06543 -0.266601 -0.131651 -1.42109e-14 3.20778 0 0.7928 -0.191401 -0.091243 -3.49832e-06 8.70165 5.04374e-06 -0.0188237 -6.94349e-05 1.59028e-15 0 3.42558 -1.42109e-14 0.0292947 0 6.36111e-15 -3.12639e-13 2.63863 -8.23334e-10 -0.0100751 1.59028e-15 -1.59028e-15 -2.22417e-05 8.95076 3.74234e-05 -0.0575027 -0.000112091 1.59028e-15 -1.42109e-14 3.4742 -1.42109e-14 0.0973881 -4.77083e-15 3.18055e-15 -2.41585e-13 2.76997 -1.44708e-08 -0.0368804 -1.59028e-15 4.77083e-15 -1.75131 8.54802 0.0404412 0.0178567 7.9792e-06 1.59028e-15 0 3.17304 -1.42109e-14 -0.0253838 4.77083e-15 -1.59028e-15 2.4869e-13 2.71333 7.70171e-10 -0.0129265 1.59028e-15 -6.36111e-15 -3.57399 7.58378 0.457001 0.0596292 0.000535225 -0 -1.42109e-14 3.3803 -1.42109e-14 0.096971 0 -1.59028e-15 -4.9738e-14 1.97184 -1.98723e-08 -0.0569265 -3.18055e-15 -1.59028e-15 6.92539 12.7236 -3.42068 -73.4165 -3.49726 88.193 0 11.9164 0 101.668 61.5257 -43.7653 0 25.7 1.42109e-14 3.50478 0.283571 -13.9113 -2.00373e-11 26.6 -3.55271e-15 -23.4924 29.1157 23.5 -2.51807 2.31564 1.48 30.7775 26.5578 -14.9111 -1.42109e-14 3.93157 1.42109e-14 -0.940956 -0.237838 0.117539 7.10543e-15 3.20977 4.26326e-14 -0.695804 -0.175996 0.084333 -6.56541e-12 8.70165 0 -0.0050508 7.6384e-05 1.59028e-14 0 3.42522 -7.10543e-15 0.0120434 3.90438e-05 -6.36111e-15 -6.6791e-13 2.63834 2.13163e-14 -0.00759159 3.83596e-05 3.18055e-15 -3.43705e-05 8.9516 -3.05546e-05 -0.00362641 4.68076e-05 9.54166e-15 0 3.4742 0 0.0024289 -1.87453e-05 9.54166e-15 -2.70006e-12 2.76997 -1.42109e-14 0.00237084 -4.89982e-05 -6.36111e-15 1.75126 8.5489 0.0404023 0.000723448 7.16082e-05 1.59028e-14 -1.42109e-14 2.95776 -1.42109e-14 -1.59028e-15 -1.59028e-15 3.18055e-15 2.48198e-06 2.76997 4.89192e-07 0 0 -0 3.57398 7.58481 0.457164 0.234317 -0.000570151 2.33218e-06 0 3.3803 2.13163e-14 -0.0241399 7.20261e-05 3.18055e-15 2.27374e-13 1.97184 3.55271e-14 -0.00768704 1.21015e-05 -0 -8.5 -8.19964 0.08092 175.429 15.6599 9.96963 7.99361e-15 42.9009 -7.10543e-15 2.68213 -42.8267 -3.57596 -1.06581e-14 38.0864 0 17.7991 75.7718 -17.3173 2.66454e-15 14.087 0 -1.55001e-05 39.1744 5.51545e-06 8.5 -8.19964 0.08092 -177.018 20.1417 -4.75394 7.10543e-15 42.9009 0 -0.706832 -16.315 -4.92472 0 38.0864 -7.10543e-15 -11.3494 66.822 10.0007 -7.10543e-15 14.087 -3.55271e-15 -1.59485e-05 39.1744 5.46156e-06 
-5.88987 93.9946 -68.2076 4.07653 -1.55699 15.0714 0 12.3689 -3.99218 1.34769 12.4432 -3.09645 1.77636e-15 14.0303 -1.42109e-14 1.07586 -5.52925 -3.3498 1.77636e-15 5.60109 -1.42109e-14 0.814002 3.30638 -2.49845 -1.82323e-06 23.8357 -5.66956 3.86186e-06 29.2987 -9.90584e-06 0 9.08727 2.84217e-14 -6.36111e-15 3.18055e-15 -6.36111e-15 -6.92539 12.7236 -3.42068 69.2679 8.49462 -82.1399 0 11.9164 0 -96.8887 44.267 51.8207 -1.03322e-05 25.7 1.48965e-05 -30.5437 -3.39167 -12.0611 -1.0694e-05 26.6 1.54182e-05 -35.908 -8.48389 -17.298 2.51819 2.31438 1.47793 -30.9004 26.556 14.9798 -1.42109e-14 3.93334 0 1.06543 -0.266601 -0.131651 -2.84217e-14 3.20778 2.84217e-14 0.7928 -0.191401 -0.091243 -3.49832e-06 8.70165 5.04374e-06 -0.0188237 -6.94349e-05 1.27222e-14 0 3.42558 0 0.0292947 -1.59028e-15 -6.36111e-15 -3.12639e-13 2.63863 -8.23349e-10 -0.0100751 -4.77083e-15 -0 -2.22417e-05 8.95076 3.74234e-05 -0.0575027 -0.000112091 9.54166e-15 -1.42109e-14 3.4742 -4.26326e-14 0.0973881 -3.18055e-15 6.36111e-15 -2.41585e-13 2.76997 -1.44708e-08 -0.0368804 -1.59028e-15 3.18055e-15 -1.75131 8.54802 0.0404412 0.0178567 7.9792e-06 9.54166e-15 -1.42109e-14 3.17304 -2.84217e-14 -0.0253838 -3.18055e-15 3.18055e-15 2.41585e-13 2.71333 7.70171e-10 -0.0129265 -1.59028e-15 6.36111e-15 -3.57399 7.58378 0.457001 0.0596292 0.000535225 9.54166e-15 0 3.3803 -2.84217e-14 0.096971 3.18055e-15 6.36111e-15 -5.68434e-14 1.97184 -1.98723e-08 -0.0569265 6.36111e-15 -6.36111e-15 6.92539 12.7236 -3.42068 -73.4746 -3.53346 88.2115 0 11.9164 0 102.754 61.6919 -44.2503 0 25.7 -7.10543e-15 4.38287 -0.159323 -12.8389 -2.00373e-11 26.6 -7.10543e-15 -24.8673 30.1875 24.9473 -2.51807 2.31564 1.48 30.7775 26.5578 -14.9111 -7.10543e-15 3.93157 0 -0.940956 -0.237838 0.117539 -7.10543e-15 3.20977 7.10543e-14 -0.695804 -0.175996 0.084333 -6.53699e-12 8.70165 0 -0.0050508 7.6384e-05 -9.54166e-15 -1.42109e-14 3.42522 -7.10543e-15 0.0120434 3.90438e-05 -0 -6.6791e-13 2.63834 3.55271e-14 -0.00759159 3.83596e-05 -6.36111e-15 -3.43705e-05 8.9516 -3.05546e-05 -0.00362641 4.68076e-05 -6.36111e-15 0 3.4742 0 0.0024289 -1.87453e-05 -9.54166e-15 -2.68585e-12 2.76997 -2.13163e-14 0.00237084 -4.89982e-05 6.36111e-15 1.75126 8.5489 0.0404023 0.000723448 7.16082e-05 -3.18055e-15 0 2.95776 -1.42109e-14 -6.36111e-15 1.59028e-15 -6.36111e-15 2.48198e-06 2.76997 4.89191e-07 -3.18055e-15 -1.59028e-15 -0 3.57398 7.58481 0.457164 0.234317 -0.000570151 2.33218e-06 0 3.3803 2.84217e-14 -0.0241399 7.20261e-05 -3.18055e-15 2.27374e-13 1.97184 3.55271e-14 -0.00768704 1.21015e-05 9.54166e-15 -8.5 -8.19964 0.08092 175.473 16.9034 9.77452 8.88178e-15 42.9009 7.10543e-15 3.05267 -42.315 -2.96807 -1.06581e-14 38.0864 1.42109e-14 17.763 75.7059 -17.2285 1.77636e-15 14.087 7.10543e-15 -1.55001e-05 39.1744 5.51545e-06 8.5 -8.19964 0.08092 -176.879 19.0811 -5.39964 7.10543e-15 42.9009 0 -0.805612 -16.9588 -5.26372 0 38.0864 0 -10.6592 65.2833 9.27099 0 14.087 -5.32907e-15 -1.59485e-05 39.1744 5.46156e-06 
-7.14888 94.3529 -68.4414 3.98994 -1.16081 15.5417 3.55271e-15 12.3689 -3.99218 1.35741 12.173 -3.22407 0 14.0303 0 1.06643 -5.84351 -3.49932 1.77636e-15 5.60109 0 0.810842 3.08202 -2.60488 -1.82323e-06 23.8357 -5.66956 3.86186e-06 29.2987 -9.90584e-06 -3.55271e-15 9.08727 0 -7.15625e-15 -1.27222e-14 -9.54166e-15 -6.92539 12.7236 -3.42068 70.1887 5.9534 -83.4589 -1.42109e-14 11.9164 2.84217e-14 -97.6641 47.4614 51.1154 -1.03322e-05 25.7 1.48965e-05 -33.4735 -3.34317 -12.3069 -1.0694e-05 26.6 1.54182e-05 -34.0029 -7.71223 -15.8282 2.51819 2.31438 1.47793 -30.9004 26.556 14.9798 -1.42109e-14 3.93334 -2.13163e-14 1.06543 -0.266601 -0.131651 0 3.20778 1.42109e-14 0.7928 -0.191401 -0.091243 -3.49832e-06 8.70165 5.04374e-06 -0.0188237 -6.94349e-05 -3.18055e-15 -1.42109e-14 3.42558 -1.42109e-14 0.0292947 -3.18055e-15 -0 -3.12639e-13 2.63863 -8.23349e-10 -0.0100751 -6.36111e-15 -0 -2.22417e-05 8.95076 3.74234e-05 -0.0575027 -0.000112091 -3.18055e-15 0 3.4742 -2.84217e-14 0.0973881 -3.18055e-15 6.36111e-15 -2.27374e-13 2.76997 -1.44708e-08 -0.0368804 3.18055e-15 -0 -1.75131 8.54802 0.0404412 0.0178567 7.9792e-06 -0 -1.42109e-14 3.17304 -2.84217e-14 -0.0253838 1.59028e-15 6.36111e-15 2.41585e-13 2.71333 7.70171e-10 -0.0129265 1.59028e-15 -0 -3.57399 7.58378 0.457001 0.0596292 0.000535225 -6.36111e-15 -1.42109e-14 3.3803 -2.84217e-14 0.096971 0 -3.18055e-15 -2.84217e-14 1.97184 -1.98723e-08 -0.0569265 -1.59028e-15 -0 6.92539 12.7236 -3.42068 -73.5096 -3.56789 88.2288 0 11.9164 0 103.301 61.8539 -44.6288 7.10543e-15 25.7 -7.10543e-15 4.90408 -0.543445 -12.3087 -2.00302e-11 26.6 0 -26.2497 29.8004 26.3623 -2.51807 2.31564 1.48 30.7775 26.5578 -14.9111 0 3.93157 1.42109e-14 -0.940956 -0.237838 0.117539 0 3.20977 4.26326e-14 -0.695804 -0.175996 0.084333 -6.56541e-12 8.70165 0 -0.0050508 7.6384e-05 -0 -1.42109e-14 3.42522 -7.10543e-15 0.0120434 3.90438e-05 6.36111e-15 -6.53699e-13 2.63834 3.55271e-14 -0.00759159 3.83596e-05 -0 -3.43705e-05 8.9516 -3.05546e-05 -0.00362641 4.68076e-05 6.36111e-15 0 3.4742 -7.10543e-15 0.0024289 -1.87453e-05 1.27222e-14 -2.71427e-12 2.76997 -1.42109e-14 0.00237084 -4.89982e-05 9.54166e-15 1.75126 8.5489 0.0404023 0.000723448 7.16082e-05 9.54166e-15 0 2.95776 -1.42109e-14 -7.95139e-16 -1.59028e-15 6.36111e-15 2.48198e-06 2.76997 4.89192e-07 -1.59028e-15 0 -0 3.57398 7.58481 0.457164 0.234317 -0.000570151 2.33218e-06 0 3.3803 2.13163e-14 -0.0241399 7.20261e-05 3.18055e-15 2.27374e-13 1.97184 2.84217e-14 -0.00768704 1.21015e-05 -6.36111e-15 -8.5 -8.19964 0.08092 175.499 18.0752 10.0334 8.88178e-15 42.9009 7.10543e-15 3.12883 -41.8758 -2.74367 -9.76996e-15 38.0864 0 17.6313 75.5819 -17.0608 3.55271e-15 14.087 0 -1.55001e-05 39.1744 5.51545e-06 8.5 -8.19964 0.08092 -176.639 16.1856 -6.57131 7.10543e-15 42.9009 0 -0.569163 -18.5219 -5.4535 -7.10543e-15 38.0864 7.10543e-15 -9.45923 62.3638 8.1175 0 14.087 -3.55271e-15 -1.59485e-05 39.1744 5.46156e-06 
